<?xml version="1.0" encoding="UTF-8" standalone="no"?>
<svg width="68px" height="80px" viewBox="0 0 68 80" version="1.1" xmlns="http://www.w3.org/2000/svg" xmlns:xlink="http://www.w3.org/1999/xlink" xmlns:sketch="http://www.bohemiancoding.com/sketch/ns">
    <!-- Generator: Sketch 3.4 (15575) - http://www.bohemiancoding.com/sketch -->
    <title>j-logo-fleur</title>
    <desc>Created with Sketch.</desc>
    <defs></defs>
    <g id="Page-1" stroke="none" stroke-width="1" fill="none" fill-rule="evenodd" sketch:type="MSPage">
        <g id="jay-logo-copy-3" sketch:type="MSArtboardGroup" transform="translate(-77.000000, -16.000000)">
            <g id="j-logo-fleur" sketch:type="MSLayerGroup" transform="translate(77.000000, 16.000000)">
                <path d="M43.2587438,11.9086951 C43.2587438,12.2971544 43.2040272,12.852088 43.0945925,13.5735124 C42.9851577,14.2949368 42.9304412,14.794377 42.9304412,15.0718479 L42.9304412,15.4880522 C42.9304412,15.2105813 42.0276181,17.2360887 40.2219449,21.5646353 C38.1426848,26.3926295 36.6106214,31.7754849 35.6257088,37.7133629 C35.2426872,39.9331303 34.9417461,42.7632914 34.7228767,46.203931 C34.4492898,50.5324775 34.2577819,53.2239052 34.1483471,54.2782947 C33.7106082,58.1628878 33.3002341,60.1051552 32.9172125,60.1051552 C32.2058866,60.1051552 31.7681542,56.4703405 31.6040021,49.2006021 C31.43985,41.9308636 30.8106097,36.1595548 29.7162623,31.8865024 C28.786067,28.3348745 27.2540036,24.3116063 25.1200262,19.8165772 C23.3143529,16.0984667 22.4115299,13.8232391 22.4115299,12.9908263 C22.4115299,12.4913787 22.6030378,12.2416586 22.9860594,12.2416586 C23.2049289,12.2416586 24.1214311,13.0601855 25.7355935,14.697264 C27.3497559,16.3343425 28.7860654,17.1528695 30.0445649,17.1528695 C31.0841949,17.1528695 31.6040021,16.2927225 31.6040021,14.5724027 C31.6040021,13.1295539 31.2073072,11.2011598 30.4139053,8.78716272 C29.6205034,6.3731656 29.2238084,4.83322502 29.2238084,4.16729478 C29.2238084,3.61235291 29.5521077,3.30713947 30.2087162,3.25164528 C31.1389115,3.19615109 31.6997561,3.09903772 31.8912669,2.96030226 C32.0827777,2.82156679 32.3016439,2.30825326 32.5478721,1.42034628 C32.7941002,0.532439292 33.1907952,0.0884924583 33.7379689,0.0884924583 C34.1757079,0.0884924583 34.5587237,0.421452584 34.8870279,1.08738282 C35.3794843,2.19726656 35.6804253,2.82156679 35.78986,2.96030226 C35.8992948,3.09903772 36.3643855,3.33488448 37.185146,3.6678496 C37.8417545,4.00081472 38.1700538,4.41701487 38.1700538,4.91646255 C38.1700538,5.52689861 37.6776048,6.81711909 36.6926921,8.78716272 C35.7077795,10.7572063 35.2153305,12.6578537 35.2153305,14.4891619 C35.2153305,15.2660805 35.3247636,16.1817208 35.5436331,17.2361104 C36.85685,16.9031453 38.2794803,15.7377848 39.8115667,13.7399941 C41.2342183,11.908686 42.1643996,10.9930456 42.6021386,10.9930456 C43.0398776,10.9930456 43.2587438,11.2982591 43.2587438,11.9086951 L43.2587438,11.9086951 Z M67.5531347,35.7155821 C67.5531347,37.9908438 66.7050282,40.1134646 65.0087897,42.0835082 C63.3125513,44.0535518 61.5069051,45.0385589 59.5917972,45.0385589 C59.2087756,45.0385589 58.4701021,44.7194721 57.3757547,44.0812889 C56.2814073,43.4431058 55.3238677,43.124019 54.5031072,43.124019 C54.1748029,43.124019 53.9285785,43.1517657 53.7644263,43.2072599 C55.1323606,46.9253704 55.8163175,49.1173579 55.8163175,49.7832881 C55.8163175,51.5036079 55.4880182,52.3637549 54.8314097,52.3637549 C54.2295187,52.3637549 53.6549949,51.8920614 53.1078212,50.9486602 C52.0681911,49.2283404 51.4115926,48.22946 51.1380057,47.9519891 C50.4266799,47.1195763 49.4964985,46.7033761 48.3474338,46.7033761 C45.7757174,46.7033761 43.4092266,48.4652901 41.2478904,51.989171 C39.0865543,55.5130518 38.0059025,59.5224467 38.0059025,64.0174758 C38.0059025,66.0152665 38.8813673,68.0130273 40.6323231,70.010818 C40.468171,71.2316901 39.8389307,71.842117 38.7445833,71.842117 C38.416279,71.842117 38.0059049,71.7311303 37.5134486,71.5091535 C37.0209923,71.2871768 36.692693,71.1761901 36.5285408,71.1761901 C35.9266498,71.1761901 35.6257088,71.5923902 35.6257088,72.424803 C35.6257088,72.5912856 35.653067,72.896499 35.7077844,73.3404525 L35.7077844,74.5058246 C35.7077844,78.0019584 34.6955282,79.749999 32.6709855,79.749999 C32.3426813,79.749999 31.9733446,79.4170389 31.5629643,78.7511087 C31.152584,78.0851784 30.947397,77.4470049 30.947397,76.8365688 C30.947397,76.5590979 31.0705092,76.0596577 31.3167374,75.3382333 C31.5629655,74.6168088 31.6860778,74.0618753 31.6860778,73.673416 C31.6860778,72.6190264 31.3030619,72.0918396 30.5370187,72.0918396 C30.3728666,72.0918396 30.0992839,72.1473329 29.7162623,72.2583213 C29.3332407,72.3693097 29.0322997,72.424803 28.8134302,72.424803 C27.8285175,72.424803 26.9393736,72.1473363 26.1459717,71.5923944 C25.3525699,71.0374525 24.9558749,70.4547723 24.9558749,69.8443363 C24.9558749,69.6223595 25.5030404,68.7899592 26.5973878,67.3471104 C27.6917352,65.9042615 28.2389007,64.6834077 28.2389007,63.6845123 C28.2389007,59.8554135 27.2266445,56.0818654 25.2021018,52.3637549 C23.5605807,49.3670688 21.5634266,47.8687482 19.2105797,47.8687482 C18.3351018,47.8687482 17.2681291,48.2572017 16.0096295,49.0341203 C14.149239,50.1994982 12.9728331,50.8931652 12.4803768,51.1151419 C11.8237684,50.6711884 11.4954691,50.1162549 11.4954691,49.4503246 C11.4954691,48.673406 11.987918,47.7577657 12.9728307,46.7033761 C14.2313302,45.482504 15.4898108,44.2616502 16.7483104,43.0407781 C16.5841582,42.8742956 16.4200086,42.7910556 16.2558565,42.7910556 C15.7086828,42.7910556 14.6964266,43.1517624 13.2190576,43.8731868 C11.7416886,44.5946112 10.7020742,44.955318 10.1001831,44.955318 C7.80205353,44.955318 5.61339155,43.9009443 3.53413147,41.7921652 C1.61902351,39.8498687 0.661483889,37.9908413 0.661483889,36.2150273 C0.661483889,35.3271203 0.839312676,34.49472 1.19497558,33.7178014 C1.55063849,32.9408828 1.83790038,32.5524293 2.05676986,32.5524293 C2.22092197,32.5524293 2.6723335,33.1351095 3.411018,34.3004875 C4.1497025,35.4658654 4.73790541,36.0485456 5.17564438,36.0485456 C5.28507912,36.0485456 5.94167771,35.410372 7.14545986,34.1340057 C8.34924201,32.8576394 9.443573,32.2194659 10.4284857,32.2194659 C11.1945289,32.2194659 12.1794267,32.469186 13.3832089,32.9686336 C14.586991,33.4680813 15.3256645,33.7178014 15.5992513,33.7178014 C16.3105771,33.7178014 16.7483095,32.8854011 16.9124616,31.2205755 C17.2407659,28.112901 17.4596321,26.3371137 17.5690668,25.8931602 C17.8426537,24.6167939 18.3898192,23.9786203 19.2105797,23.9786203 C20.3049271,23.9786203 20.8520926,24.8387673 20.8520926,26.5590871 L20.8520926,27.225014 C20.7973752,27.5579792 20.770017,27.7799526 20.770017,27.8909409 C20.770017,29.5002724 21.8917062,32.0529666 24.1351184,35.5491004 C26.6521175,39.4336935 28.102106,42.3193479 28.4851276,44.2061502 C28.5945624,44.8165863 28.8681451,47.1473072 29.3058841,51.1983828 C29.6341883,54.528034 30.1813538,57.358195 30.947397,59.6889509 C31.4945707,61.2982823 32.2332441,62.1029359 33.1634394,62.1029359 C34.4219389,62.1029359 35.0511792,61.2982823 35.0511792,59.6889509 L35.0511792,59.3559874 C34.9964619,59.1340107 34.9691036,58.9675306 34.9691036,58.8565423 C34.9691036,55.5823852 35.8172101,51.5868637 37.5134486,46.8698579 C38.9361002,42.9852648 40.3587305,39.10073 41.7813821,35.216137 C42.1644037,33.8842765 42.7115692,31.2205955 43.422895,27.225014 C43.7511993,25.4492001 44.3804396,24.5613064 45.3106349,24.5613064 C46.0766781,24.5613064 46.7606349,25.2549733 47.362526,26.642328 C48.1285692,28.6401187 48.8672426,30.6101328 49.5785684,32.5524293 C51.9861327,31.553534 53.6823458,31.0540938 54.6672584,31.0540938 C57.1842575,31.0540938 59.126695,31.9419874 60.4946293,33.7178014 C60.8776508,34.3282375 61.2606667,34.924791 61.6436883,35.50748 C62.0267099,36.0901689 62.437084,36.381509 62.874823,36.381509 C63.5314314,36.381509 64.2153883,35.7433355 64.9267141,34.4669692 C65.6380399,33.1906029 66.1304889,32.5524293 66.4040757,32.5524293 C67.1701189,32.5524293 67.5531347,33.606803 67.5531347,35.7155821 L67.5531347,35.7155821 Z" id="y-copy" fill="#FFFFFF" sketch:type="MSShapeGroup"></path>
                <path d="M41.3786726,12.6439905 C41.3786726,13.0195011 41.32578,13.5559369 41.219993,14.2533138 C41.1142061,14.9506908 41.0613135,15.433483 41.0613135,15.7017049 L41.0613135,16.1040357 C41.0613135,15.8358138 40.1885845,17.7938043 38.4431004,21.978066 C36.433149,26.6451271 34.9521544,31.8485539 34.0000721,37.5885026 C33.6298179,39.7342778 33.3389083,42.4701002 33.1273344,45.7960518 C32.8628671,49.9803135 32.6777428,52.5820269 32.5719559,53.6012701 C32.1488082,57.3563767 31.7521132,59.2339019 31.381859,59.2339019 C30.6942441,59.2339019 30.2711028,55.7202477 30.1124224,48.6928338 C29.953742,41.66542 29.3454764,36.0864881 28.2876072,31.9558708 C27.3884184,28.5226305 25.9074238,24.6334713 23.8445789,20.2882764 C22.0990948,16.694103 21.2263659,14.4947164 21.2263659,13.6900506 C21.2263659,13.2072512 21.4114902,12.9658551 21.7817444,12.9658551 C21.9933182,12.9658551 22.8792704,13.7570979 24.4396274,15.3396071 C25.9999844,16.9221163 27.3884168,17.7133591 28.6049664,17.7133591 C29.6099421,17.7133591 30.1124224,16.8818836 30.1124224,15.2189078 C30.1124224,13.824154 29.7289506,11.9600397 28.9619954,9.62650915 C28.1950403,7.2929786 27.8115685,5.80436938 27.8115685,5.16063681 C27.8115685,4.62419301 28.1289245,4.32915334 28.763646,4.27550896 C29.6628347,4.22186458 30.2049846,4.12798832 30.3901117,3.99387737 C30.5752388,3.85976642 30.7868094,3.36356335 31.02483,2.50525326 C31.2628505,1.64694317 31.6463224,1.21779457 32.1752569,1.21779457 C32.5984046,1.21779457 32.9686533,1.53965602 33.286014,2.18338859 C33.7620551,3.2562762 34.0529648,3.85976642 34.1587517,3.99387737 C34.2645386,4.12798832 34.7141263,4.35597352 35.5075281,4.6778398 C36.1422496,4.99970609 36.4596056,5.4020329 36.4596056,5.88483233 C36.4596056,6.47492051 35.9835716,7.72213365 35.0314894,9.62650915 C34.0794071,11.5308847 33.6033732,13.3681771 33.6033732,15.1384417 C33.6033732,15.889463 33.7091585,16.774582 33.9207323,17.7938252 C35.1901753,17.4719589 36.5653846,16.3454439 38.0464014,14.4142462 C39.4216313,12.6439816 40.3208066,11.7588626 40.7439543,11.7588626 C41.167102,11.7588626 41.3786726,12.0539023 41.3786726,12.6439905 L41.3786726,12.6439905 Z M64.8632506,35.6573146 C64.8632506,37.8567342 64.0434143,39.908601 62.4037171,41.8129765 C60.7640199,43.717352 59.0185619,44.6695254 57.1672909,44.6695254 C56.7970367,44.6695254 56.0829857,44.3610749 55.0251166,43.7441645 C53.9672474,43.1272541 53.0416258,42.8188036 52.2482239,42.8188036 C51.9308632,42.8188036 51.6928462,42.8456254 51.5341658,42.8992697 C52.8565022,46.4934432 53.5176605,48.6123645 53.5176605,49.256097 C53.5176605,50.9190728 53.2003046,51.7505482 52.5655831,51.7505482 C51.983755,51.7505482 51.428382,51.2945778 50.8994475,50.3826234 C49.8944718,48.7196476 49.2597598,47.7540632 48.9952925,47.4858413 C48.3076775,46.6811756 47.4085022,46.2788488 46.2977396,46.2788488 C43.8117471,46.2788488 41.5241393,47.9820323 39.4348478,51.3884505 C37.3455562,54.7948686 36.300926,58.670617 36.300926,63.0158118 C36.300926,64.9470095 37.1472087,66.8781782 38.8397993,68.8093759 C38.681119,69.9895523 38.0728533,70.5796316 37.0149841,70.5796316 C36.6976234,70.5796316 36.3009284,70.4723445 35.8248873,70.2577669 C35.3488462,70.0431894 35.0314902,69.9359023 34.8728098,69.9359023 C34.2909818,69.9359023 34.0000721,70.3382291 34.0000721,71.1428948 C34.0000721,71.3038279 34.0265184,71.5988676 34.0794119,72.0280226 L34.0794119,73.154549 C34.0794119,76.534145 33.1008976,78.2239176 31.1438397,78.2239176 C30.8264789,78.2239176 30.4694534,77.9020561 30.0727525,77.2583236 C29.6760516,76.614591 29.4777041,75.9976899 29.4777041,75.4076017 C29.4777041,75.1393798 29.5967126,74.6565876 29.8347331,73.9592107 C30.0727537,73.2618337 30.1917622,72.725398 30.1917622,72.3498873 C30.1917622,71.3306441 29.8215135,70.8210301 29.0810051,70.8210301 C28.9223247,70.8210301 28.6578614,70.8746737 28.2876072,70.9819625 C27.917353,71.0892512 27.6264433,71.1428948 27.4148695,71.1428948 C26.4627873,71.1428948 25.6032815,70.8746769 24.8363263,70.3382331 C24.0693712,69.8017893 23.6858994,69.2385318 23.6858994,68.6484436 C23.6858994,68.4338661 24.214826,67.6292124 25.2726952,66.2344585 C26.3305643,64.8397046 26.859491,63.659546 26.859491,62.6939471 C26.859491,58.9924849 25.8809767,55.3447217 23.9239187,51.7505482 C22.337115,48.8537517 20.4065327,47.4053752 18.132114,47.4053752 C17.2858187,47.4053752 16.2544118,47.7808802 15.0378622,48.5319015 C13.2394846,49.6584335 12.1022924,50.3289782 11.6262512,50.5435557 C10.9915297,50.1144007 10.6741737,49.5779649 10.6741737,48.9342324 C10.6741737,48.183211 11.1502077,47.298092 12.10229,46.2788488 C13.3188395,45.0986724 14.5353708,43.9185138 15.7519203,42.7383374 C15.59324,42.5774043 15.434562,42.4969389 15.2758816,42.4969389 C14.746947,42.4969389 13.7684327,42.8456221 12.3403093,43.5429991 C10.912186,44.240376 9.90722535,44.5890593 9.32539731,44.5890593 C7.10387207,44.5890593 4.98816548,43.5698313 2.97821408,41.5313449 C1.12694305,39.6537916 0.201321415,37.8567318 0.201321415,36.1401116 C0.201321415,35.2818015 0.373222575,34.4771479 0.717030052,33.7261265 C1.06083753,32.9751052 1.33852402,32.5996002 1.55009785,32.5996002 C1.70877823,32.5996002 2.14514271,33.1628577 2.85920439,34.2893897 C3.57326608,35.4159217 4.14186222,35.9791793 4.56500989,35.9791793 C4.6707968,35.9791793 5.30550878,35.3622781 6.46916485,34.1284574 C7.63282093,32.8946366 8.69067422,32.2777355 9.64275647,32.2777355 C10.3832649,32.2777355 11.3353328,32.5191316 12.4989889,33.001931 C13.662645,33.4847305 14.376696,33.7261265 14.6411633,33.7261265 C15.3287782,33.7261265 15.7519195,32.9214729 15.9105999,31.3121415 C16.2279607,28.3080562 16.4395313,26.5914618 16.5453182,26.1623067 C16.8097855,24.928486 17.3387122,24.3115849 18.132114,24.3115849 C19.1899832,24.3115849 19.7189098,25.1430603 19.7189098,26.8060361 L19.7189098,27.4497654 C19.6660164,27.7716317 19.6395701,27.986206 19.6395701,28.0934948 C19.6395701,29.6491818 20.7238697,32.1167863 22.8925015,35.4963823 C25.3256005,39.2514889 26.7272561,42.0409548 27.0975104,43.8648638 C27.2032973,44.4549519 27.4677606,46.7079821 27.8909083,50.6240219 C28.208269,53.8426847 28.7371957,56.5785071 29.4777041,58.831571 C30.0066386,60.3872581 30.7206896,61.1650899 31.6198784,61.1650899 C32.8364279,61.1650899 33.4446936,60.3872581 33.4446936,58.831571 L33.4446936,58.5097064 C33.3918001,58.2951289 33.3653538,58.1341981 33.3653538,58.0269094 C33.3653538,54.8618909 34.1851901,50.9995535 35.8248873,46.4397811 C37.2001172,42.6846745 38.5753265,38.9296242 39.9505564,35.1745176 C40.3208106,33.8870524 40.8497372,31.3121608 41.5373522,27.4497654 C41.8547129,25.7331453 42.4629786,24.874848 43.3621674,24.874848 C44.1026758,24.874848 44.7638341,25.5453927 45.3456621,26.8865022 C46.0861706,28.8176999 46.8002215,30.7220469 47.4878365,32.5996002 C49.8151486,31.6340013 51.4548212,31.1512092 52.4069035,31.1512092 C54.8400026,31.1512092 56.7176921,32.0095064 58.0400286,33.7261265 C58.4102828,34.3162147 58.7805315,34.8928832 59.1507857,35.4561492 C59.5210399,36.0194152 59.9177349,36.3010439 60.3408825,36.3010439 C60.975604,36.3010439 61.6367623,35.6841428 62.3243773,34.4503221 C63.0119922,33.2165013 63.4880262,32.5996002 63.7524935,32.5996002 C64.4930019,32.5996002 64.8632506,33.6188281 64.8632506,35.6573146 L64.8632506,35.6573146 Z" id="y" fill="#E44C65" sketch:type="MSShapeGroup"></path>
            </g>
        </g>
    </g>
</svg>