<?xml version="1.0" encoding="UTF-8" standalone="no"?>
<svg width="68px" height="40px" viewBox="0 0 68 40" version="1.1" xmlns="http://www.w3.org/2000/svg" xmlns:xlink="http://www.w3.org/1999/xlink" xmlns:sketch="http://www.bohemiancoding.com/sketch/ns">
    <!-- Generator: Sketch 3.4 (15575) - http://www.bohemiancoding.com/sketch -->
    <title>new-jay-logo</title>
    <desc>Created with Sketch.</desc>
    <defs></defs>
    <g id="Page-1" stroke="none" stroke-width="1" fill="none" fill-rule="evenodd" sketch:type="MSPage">
        <g id="new-jay-logo" sketch:type="MSArtboardGroup">
            <g id="js-logo" sketch:type="MSLayerGroup" transform="translate(8.000000, 8.000000)">
                <path d="M30.1954293,4.76347804 C30.1954293,4.91886177 30.1734316,5.14083518 30.1294354,5.42940495 C30.0854392,5.71797472 30.0634414,5.9177508 30.0634414,6.02873917 L30.0634414,6.1952209 C30.0634414,6.08423253 29.7004783,6.8944355 28.9745413,8.62585412 C28.1386138,10.5570518 27.5226764,12.710194 27.1267107,15.0853451 C26.9727241,15.9732521 26.8517364,17.1053166 26.763744,18.4815724 C26.6537535,20.212991 26.5767614,21.2895621 26.5327652,21.7113179 C26.3567804,23.2651551 26.1917972,24.0420621 26.0378106,24.0420621 C25.7518354,24.0420621 25.5758533,22.5881362 25.509859,19.6802408 C25.4438647,16.7723454 25.1908904,14.4638219 24.7509286,12.754601 C24.376961,11.3339498 23.7610236,9.72464251 22.903098,7.92663086 C22.177161,6.43938666 21.8141979,5.52929565 21.8141979,5.19633053 C21.8141979,4.99655146 21.89119,4.89666343 22.0451767,4.89666343 C22.1331691,4.89666343 22.5016316,5.22407421 23.1505753,5.87890562 C23.7995191,6.53373702 24.3769603,6.86114781 24.8829165,6.86114781 C25.3008802,6.86114781 25.509859,6.51708901 25.509859,5.8289611 C25.509859,5.25182156 25.3503752,4.48046393 25.0314029,3.51486509 C24.7124305,2.54926624 24.5529467,1.93329001 24.5529467,1.66691791 C24.5529467,1.44494117 24.6849333,1.32285579 24.9489104,1.30065811 C25.322878,1.27846044 25.5483551,1.23961509 25.6253484,1.1841209 C25.7023417,1.12862672 25.7903328,0.923301306 25.8893242,0.568138511 C25.9883156,0.212975717 26.1477994,0.0353969833 26.3677803,0.0353969833 C26.5437651,0.0353969833 26.6977494,0.168581033 26.829738,0.434953129 C27.0277208,0.878906622 27.1487085,1.12862672 27.1927047,1.1841209 C27.2367009,1.23961509 27.4236818,1.33395379 27.7536532,1.46713984 C28.0176303,1.60032589 28.1496169,1.76680595 28.1496169,1.96658502 C28.1496169,2.21075944 27.9516371,2.72684764 27.5556714,3.51486509 C27.1597057,4.30288254 26.9617259,5.06314149 26.9617259,5.79566475 C26.9617259,6.1064322 27.0057214,6.47268834 27.0937137,6.89444415 C27.621668,6.76125811 28.1936098,6.29511393 28.8095564,5.49599764 C29.3815068,4.76347438 29.7554688,4.39721824 29.9314535,4.39721824 C30.1074383,4.39721824 30.1954293,4.51930362 30.1954293,4.76347804 L30.1954293,4.76347804 Z M39.9625337,14.2862329 C39.9625337,15.1963375 39.6215684,16.0453858 38.9396275,16.8334033 C38.2576866,17.6214207 37.5317604,18.0154235 36.7618272,18.0154235 C36.6078406,18.0154235 36.3108708,17.8877888 35.8709089,17.6325156 C35.430947,17.3772423 35.0459862,17.2496076 34.7160148,17.2496076 C34.5840262,17.2496076 34.4850363,17.2607063 34.419042,17.2829039 C34.9689943,18.7701481 35.2439664,19.6469431 35.2439664,19.9133152 C35.2439664,20.6014432 35.1119798,20.945502 34.8480027,20.945502 C34.6060237,20.945502 34.3750472,20.7568245 34.1550662,20.3794641 C33.7371025,19.6913362 33.4731293,19.291784 33.3631389,19.1807956 C33.0771636,18.8478305 32.7032017,18.6813505 32.2412417,18.6813505 C31.2073314,18.6813505 30.2559281,19.3861161 29.3870035,20.7956684 C28.5180788,22.2052207 28.083623,23.8089787 28.083623,25.6069903 C28.083623,26.4061066 28.4355872,27.2052109 29.1395262,28.0043272 C29.0735319,28.492676 28.8205576,28.7368468 28.3805957,28.7368468 C28.2486072,28.7368468 28.083624,28.6924521 27.8856411,28.6036614 C27.6876583,28.5148707 27.5556717,28.470476 27.4896774,28.470476 C27.2476984,28.470476 27.1267107,28.6369561 27.1267107,28.9699212 C27.1267107,29.0365142 27.1377096,29.1585996 27.1597077,29.336181 L27.1597077,29.8023299 C27.1597077,31.2007834 26.7527491,31.8999996 25.9388196,31.8999996 C25.8068311,31.8999996 25.6583462,31.7668156 25.4933605,31.5004435 C25.3283748,31.2340714 25.2458832,30.9788019 25.2458832,30.7346275 C25.2458832,30.6236392 25.2953782,30.4238631 25.3943696,30.1352933 C25.493361,29.8467235 25.542856,29.6247501 25.542856,29.4693664 C25.542856,29.0476106 25.3888716,28.8367358 25.0808983,28.8367358 C25.014904,28.8367358 24.9049152,28.8589332 24.7509286,28.9033285 C24.5969419,28.9477239 24.4759542,28.9699212 24.3879619,28.9699212 C23.9919962,28.9699212 23.6345325,28.8589345 23.3155602,28.6369578 C22.9965879,28.414981 22.8371041,28.1819089 22.8371041,27.9377345 C22.8371041,27.8489438 23.0570817,27.5159837 23.4970436,26.9388441 C23.9370054,26.3617046 24.156983,25.8733631 24.156983,25.4738049 C24.156983,23.9421654 23.7500244,22.4327462 22.936095,20.945502 C22.2761522,19.7468275 21.4732339,19.1474993 20.5273159,19.1474993 C20.1753464,19.1474993 19.74639,19.3028807 19.2404339,19.6136481 C18.4924987,20.0797993 18.0195468,20.3572661 17.821564,20.4460568 C17.5575869,20.2684754 17.4256003,20.046502 17.4256003,19.7801299 C17.4256003,19.4693624 17.6235802,19.1031063 18.0195458,18.6813505 C18.525502,18.1930016 19.0314505,17.7046601 19.5374066,17.2163113 C19.4714124,17.1497182 19.4054191,17.1164222 19.3394248,17.1164222 C19.1194439,17.1164222 18.7124853,17.2607049 18.1185368,17.5492747 C17.5245882,17.8378445 17.1066308,17.9821272 16.8646517,17.9821272 C15.9407318,17.9821272 15.0608213,17.5603777 14.2248938,16.7168661 C13.4549605,15.9399475 13.0699997,15.1963365 13.0699997,14.4860109 C13.0699997,14.1308481 13.1414924,13.797888 13.28448,13.4871206 C13.4274676,13.1763531 13.5429559,13.0209717 13.6309483,13.0209717 C13.6969425,13.0209717 13.8784241,13.2540438 14.1753983,13.720195 C14.4723726,14.1863461 14.7088485,14.4194182 14.8848333,14.4194182 C14.9288295,14.4194182 15.1928026,14.1641488 15.6767607,13.6536023 C16.1607187,13.1430558 16.600674,12.8877863 16.9966396,12.8877863 C17.3046129,12.8877863 17.7005727,12.9876744 18.1845307,13.1874535 C18.6684887,13.3872325 18.9654585,13.4871206 19.075449,13.4871206 C19.3614242,13.4871206 19.5374063,13.1541604 19.6034006,12.4882302 C19.7353892,11.2451604 19.8233802,10.5348455 19.8673764,10.3572641 C19.9773669,9.84671757 20.1973445,9.59144814 20.5273159,9.59144814 C20.9672777,9.59144814 21.1872554,9.93550694 21.1872554,10.6236348 L21.1872554,10.8900056 C21.1652573,11.0231917 21.1542584,11.111981 21.1542584,11.1563764 C21.1542584,11.8001089 21.6052125,12.8211867 22.5071343,14.2196402 C23.5190466,15.7734774 24.1019873,16.9277392 24.255974,17.6824601 C24.2999701,17.9266345 24.409959,18.8589229 24.5859437,20.4793531 C24.7179323,21.8112136 24.9379099,22.943278 25.2458832,23.8755804 C25.4658641,24.5193129 25.7628339,24.8411744 26.1368015,24.8411744 C26.6427576,24.8411744 26.8957319,24.5193129 26.8957319,23.8755804 L26.8957319,23.742395 C26.8737338,23.6536043 26.8627349,23.5870122 26.8627349,23.5426169 C26.8627349,22.2329541 27.2037003,20.6347455 27.8856411,18.7479431 C28.4575915,17.1941059 29.0295334,15.640292 29.6014838,14.0864548 C29.7554704,13.5537106 29.9754481,12.4882382 30.2614233,10.8900056 C30.3934118,10.17968 30.6463861,9.82452256 31.0203537,9.82452256 C31.328327,9.82452256 31.603299,10.1019893 31.845278,10.6569312 C32.1532513,11.4560475 32.4502211,12.2440531 32.7361963,13.0209717 C33.7041124,12.6214136 34.3860431,12.4216375 34.7820087,12.4216375 C35.793921,12.4216375 36.5748416,12.776795 37.1247939,13.4871206 C37.2787806,13.731295 37.4327649,13.9699164 37.5867516,14.202992 C37.7407382,14.4360676 37.9057214,14.5526036 38.0817062,14.5526036 C38.3456833,14.5526036 38.6206553,14.2973342 38.9066305,13.7867877 C39.1926057,13.2762412 39.3905856,13.0209717 39.5005761,13.0209717 C39.8085494,13.0209717 39.9625337,13.4427212 39.9625337,14.2862329 L39.9625337,14.2862329 Z" id="y-copy" fill="#FFFFFF" sketch:type="MSShapeGroup"></path>
                <path d="M29.439582,5.05759618 C29.439582,5.20780045 29.4183175,5.42237475 29.3757878,5.70132553 C29.3332582,5.98027631 29.3119937,6.17339318 29.3119937,6.28068194 L29.3119937,6.44161428 C29.3119937,6.33432552 28.9611294,7.11752172 28.2593902,8.79122639 C27.4513269,10.6580508 26.8559208,12.7394216 26.473154,15.0354011 C26.3243002,15.8937111 26.2073455,16.9880401 26.1222862,18.3184207 C26.0159621,19.9921254 25.9415363,21.0328108 25.8990066,21.440508 C25.7288881,22.9425507 25.5694043,23.6935608 25.4205505,23.6935608 C25.1441078,23.6935608 24.9739918,22.2880991 24.9101973,19.4771335 C24.8464028,16.666168 24.601861,14.4345953 24.1765646,12.7823483 C23.8150626,11.4090522 23.2196565,9.8533885 22.3903284,8.11531058 C21.6885892,6.67764118 21.3377249,5.79788654 21.3377249,5.47602026 C21.3377249,5.28290049 21.4121507,5.18634205 21.5610044,5.18634205 C21.6460637,5.18634205 22.0022442,5.50283915 22.6295564,6.13584284 C23.2568687,6.76884653 23.815062,7.08534363 24.3041529,7.08534363 C24.7081845,7.08534363 24.9101973,6.75275346 24.9101973,6.08756314 C24.9101973,5.52966158 24.7560297,4.78401588 24.4476897,3.85060366 C24.1393498,2.91719144 23.9851821,2.32174775 23.9851821,2.06425473 C23.9851821,1.8496772 24.1127692,1.73166134 24.367947,1.71020358 C24.729449,1.68874583 24.9474102,1.65119533 25.0218371,1.59755095 C25.096264,1.54390657 25.181322,1.34542534 25.2770137,1.0021013 C25.3727054,0.65877727 25.526873,0.487117827 25.7395213,0.487117827 C25.9096398,0.487117827 26.0584914,0.615862409 26.1860803,0.873355435 C26.3774637,1.30251048 26.4944185,1.54390657 26.5369481,1.59755095 C26.5794778,1.65119533 26.7602261,1.74238941 27.0791984,1.87113592 C27.3343763,1.99988243 27.4619633,2.16081316 27.4619633,2.35393293 C27.4619633,2.5899682 27.2705828,3.08885346 26.887816,3.85060366 C26.5050492,4.61235386 26.3136686,5.34727085 26.3136686,6.05537667 C26.3136686,6.3557852 26.3561976,6.7098328 26.4412569,7.11753009 C26.9516127,6.98878358 27.5044898,6.53817754 28.0999048,5.76569847 C28.6527902,5.05759264 29.0142868,4.70354504 29.1844054,4.70354504 C29.354524,4.70354504 29.439582,4.82156091 29.439582,5.05759618 L29.439582,5.05759618 Z M38.8811162,14.2629258 C38.8811162,15.1426937 38.5515164,15.9634404 37.8923069,16.7251906 C37.2330974,17.4869408 36.5313687,17.8678102 35.7870999,17.8678102 C35.6382462,17.8678102 35.3511754,17.7444299 34.9258789,17.4976658 C34.5005824,17.2509016 34.1284536,17.1275214 33.8094813,17.1275214 C33.6818923,17.1275214 33.5862021,17.1382501 33.5224076,17.1597079 C34.0540282,18.5973773 34.3198345,19.4449458 34.3198345,19.7024388 C34.3198345,20.3676291 34.1922474,20.7002193 33.9370696,20.7002193 C33.7031565,20.7002193 33.4798792,20.5178311 33.267231,20.1530494 C32.8631994,19.487859 32.6080253,19.1016253 32.5017012,18.9943365 C32.2252585,18.6724702 31.8637619,18.5115395 31.4172006,18.5115395 C30.4177539,18.5115395 29.4980641,19.1928129 28.6581036,20.5553802 C27.8181431,21.9179475 27.3981692,23.4682468 27.3981692,25.2063247 C27.3981692,25.9788038 27.7384012,26.7512713 28.4188756,27.5237504 C28.3550811,27.9958209 28.1105393,28.2318526 27.6852428,28.2318526 C27.5576539,28.2318526 27.3981701,28.1889378 27.2067867,28.1031068 C27.0154033,28.0172758 26.8878163,27.9743609 26.8240218,27.9743609 C26.5901088,27.9743609 26.473154,28.1352916 26.473154,28.4571579 C26.473154,28.5215312 26.4837862,28.639547 26.5050511,28.8112091 L26.5050511,29.2618196 C26.5050511,30.613658 26.1116577,31.289567 25.3248593,31.289567 C25.1972704,31.289567 25.0537349,31.1608225 24.8942488,30.9033294 C24.7347626,30.6458364 24.6550207,30.399076 24.6550207,30.1630407 C24.6550207,30.0557519 24.7028658,29.8626351 24.7985575,29.5836843 C24.8942493,29.3047335 24.9420944,29.0901592 24.9420944,28.9399549 C24.9420944,28.5322576 24.7932429,28.328412 24.4955353,28.328412 C24.4317409,28.328412 24.3254183,28.3498695 24.1765646,28.392785 C24.0277108,28.4357005 23.9107561,28.4571579 23.8256968,28.4571579 C23.4429299,28.4571579 23.0973818,28.3498708 22.7890418,28.1352932 C22.4807019,27.9207157 22.3265342,27.6954127 22.3265342,27.4593774 C22.3265342,27.3735464 22.5391793,27.051685 22.9644757,26.4937834 C23.3897722,25.9358819 23.6024172,25.4638184 23.6024172,25.0775789 C23.6024172,23.596994 23.2090239,22.1378887 22.4222255,20.7002193 C21.7842808,19.5415007 21.0081264,18.9621501 20.093739,18.9621501 C19.7535018,18.9621501 19.338844,19.1123521 18.849753,19.4127606 C18.1267491,19.8633734 17.6695622,20.1315913 17.4781788,20.2174223 C17.2230009,20.0457603 17.0954139,19.831186 17.0954139,19.5736929 C17.0954139,19.2732844 17.2867945,18.9192368 17.6695613,18.5115395 C18.1586522,18.039469 18.6477358,17.5674055 19.1368267,17.095335 C19.0730323,17.0309617 19.0092387,16.9987756 18.9454443,16.9987756 C18.732796,16.9987756 18.3394027,17.1382489 17.7652525,17.4171996 C17.1911023,17.6961504 16.7870767,17.8356237 16.5531636,17.8356237 C15.6600411,17.8356237 14.8094609,17.4279325 14.0013976,16.6125379 C13.2571288,15.8615166 12.885,15.1426927 12.885,14.4560446 C12.885,14.1127206 12.9541096,13.7908591 13.092331,13.4904506 C13.2305523,13.1900421 13.342191,13.0398401 13.4272503,13.0398401 C13.4910447,13.0398401 13.6664769,13.2651431 13.953552,13.7157559 C14.2406271,14.1663687 14.4692205,14.3916717 14.6393391,14.3916717 C14.6818688,14.3916717 14.9370428,14.1449113 15.4048689,13.651383 C15.872695,13.1578547 16.2979851,12.9110942 16.6807519,12.9110942 C16.9784595,12.9110942 17.3612205,13.0076526 17.8290466,13.2007724 C18.2968727,13.3938922 18.5839436,13.4904506 18.6902677,13.4904506 C18.9667104,13.4904506 19.1368264,13.1685892 19.2006209,12.5248566 C19.3282098,11.3232225 19.4132678,10.6365847 19.4557975,10.4649227 C19.5621216,9.97139439 19.7747666,9.72463394 20.093739,9.72463394 C20.5190354,9.72463394 20.7316805,10.0572241 20.7316805,10.7224144 L20.7316805,10.9799062 C20.7104157,11.1086527 20.6997834,11.1944824 20.6997834,11.2373979 C20.6997834,11.8596727 21.1357057,12.8467145 22.0075635,14.1985529 C22.9857453,15.7005956 23.5492547,16.8163819 23.6981085,17.5459455 C23.7406381,17.7819808 23.8469606,18.6831928 24.0170792,20.2496088 C24.1446681,21.5370739 24.3573132,22.6314028 24.6550207,23.5326284 C24.8676689,24.1549032 25.1547397,24.466036 25.5162417,24.466036 C26.0053327,24.466036 26.2498745,24.1549032 26.2498745,23.5326284 L26.2498745,23.4038826 C26.2286096,23.3180515 26.2179774,23.2536793 26.2179774,23.2107637 C26.2179774,21.9447564 26.5475772,20.3998214 27.2067867,18.5759125 C27.7596721,17.0738698 28.3125492,15.5718497 28.8654346,14.069807 C29.0142884,13.554821 29.2269334,12.5248643 29.5033761,10.9799062 C29.6309651,10.2932581 29.8755069,9.94993922 30.2370089,9.94993922 C30.5347164,9.94993922 30.8005227,10.2181571 31.0344357,10.7546009 C31.3321433,11.52708 31.6192141,12.2888188 31.8956568,13.0398401 C32.831309,12.6536005 33.4905086,12.4604837 33.8732754,12.4604837 C34.8514573,12.4604837 35.6063472,12.8038026 36.1379677,13.4904506 C36.2868215,13.7264859 36.435673,13.9571533 36.5845268,14.1824597 C36.7333806,14.4077661 36.8928643,14.5204176 37.0629829,14.5204176 C37.3181608,14.5204176 37.5839671,14.2736571 37.8604098,13.7801288 C38.1368525,13.2866005 38.328233,13.0398401 38.4345572,13.0398401 C38.7322647,13.0398401 38.8811162,13.4475313 38.8811162,14.2629258 L38.8811162,14.2629258 Z" id="y" fill="#E44C65" sketch:type="MSShapeGroup"></path>
                <path d="M2.98515701,20.5025392 L0.725391388,22.1402345 C1.78333939,23.6975339 3.38716449,24.5015623 5.53691483,24.5523438 C7.09421428,24.5354167 8.46106259,24.0064506 9.63750076,22.9654298 C10.8224025,21.9497997 11.4317714,20.511012 11.4656258,18.6490235 L11.4656258,5.89023447 L8.6599617,5.89023447 L8.6599617,18.3697267 C8.6599617,18.9960319 8.56263194,19.5165345 8.36796951,19.9312501 C8.18177067,20.3628929 7.92363523,20.7098946 7.59355545,20.9722657 C6.91646873,21.5054715 6.20553834,21.763607 5.46074295,21.7466798 C4.90214641,21.7466798 4.41549763,21.6154962 4.00078201,21.3531251 C3.5860664,21.1330719 3.24752812,20.8495461 2.98515701,20.5025392 L2.98515701,20.5025392 Z" id="J-Copy" fill="#FFFFFF" sketch:type="MSShapeGroup"></path>
                <path d="M2.28515625,20.1025391 L0.025390625,21.7402344 C1.08333862,23.2975338 2.68716373,24.1015622 4.83691406,24.1523438 C6.39421352,24.1354166 7.76106183,23.6064505 8.9375,22.5654297 C10.1224018,21.5497996 10.7317707,20.1110119 10.765625,18.2490234 L10.765625,5.49023438 L7.95996094,5.49023438 L7.95996094,17.9697266 C7.95996094,18.5960318 7.86263118,19.1165344 7.66796875,19.53125 C7.4817699,19.9628928 7.22363446,20.3098945 6.89355469,20.5722656 C6.21646797,21.1054714 5.50553758,21.3636069 4.76074219,21.3466797 C4.20214564,21.3466797 3.71549687,21.2154961 3.30078125,20.953125 C2.88606563,20.7330718 2.54752735,20.449546 2.28515625,20.1025391 L2.28515625,20.1025391 Z" id="J" fill="#E44C65" sketch:type="MSShapeGroup"></path>
                <path d="M43.8796844,24.4000001 L46.5203094,24.4000001 L46.5203094,16.7828126 L52.0935516,5.89023447 L49.1228485,5.89023447 L45.1999969,14.1041017 L41.2771454,5.89023447 L38.3064423,5.89023447 L43.8796844,16.7828126 L43.8796844,24.4000001 Z" id="Y" fill="#FFFFFF" sketch:type="MSShapeGroup"></path>
                <path d="M43.1796875,24 L45.8203125,24 L45.8203125,16.3828125 L51.3935547,5.49023438 L48.4228516,5.49023438 L44.5,13.7041016 L40.5771484,5.49023438 L37.6064453,5.49023438 L43.1796875,16.3828125 L43.1796875,24 Z" id="Y" fill="#E44C65" sketch:type="MSShapeGroup"></path>
            </g>
        </g>
    </g>
</svg>