<?xml version="1.0" encoding="UTF-8" standalone="no"?>
<svg width="68px" height="37px" viewBox="0 0 68 37" version="1.1" xmlns="http://www.w3.org/2000/svg" xmlns:xlink="http://www.w3.org/1999/xlink" xmlns:sketch="http://www.bohemiancoding.com/sketch/ns">
    <!-- Generator: Sketch 3.4 (15575) - http://www.bohemiancoding.com/sketch -->
    <title>Artboard 2 Copy 2</title>
    <desc>Created with Sketch.</desc>
    <defs></defs>
    <g id="Page-1" stroke="none" stroke-width="1" fill="none" fill-rule="evenodd" sketch:type="MSPage">
        <g id="Artboard-2-Copy-2" sketch:type="MSArtboardGroup">
            <g id="js-logo" sketch:type="MSLayerGroup" transform="translate(8.000000, 8.000000)">
                <path d="M28.6199985,4.44999962 C28.6199985,4.59000032 28.5999987,4.78999832 28.5599985,5.04999962 C28.5199983,5.31000092 28.4999985,5.48999912 28.4999985,5.58999962 L28.4999985,5.73999962 C28.4999985,5.63999912 28.1700018,6.36999182 27.5099985,7.92999962 C26.7499947,9.67000832 26.1900003,11.6099889 25.8299985,13.7499996 C25.6899978,14.5500036 25.5799989,15.5699934 25.4999985,16.8099996 C25.399998,18.3700074 25.3299987,19.3399977 25.2899985,19.7199996 C25.1299977,21.1200066 24.9799992,21.8199996 24.8399985,21.8199996 C24.5799972,21.8199996 24.4199988,20.5100127 24.3599985,17.8899996 C24.2999982,15.2699865 24.0700005,13.1900073 23.6699985,11.6499996 C23.3299968,10.3699932 22.7700024,8.92000772 21.9899985,7.29999962 C21.3299952,5.95999292 20.9999985,5.14000112 20.9999985,4.83999962 C20.9999985,4.65999872 21.0699978,4.56999962 21.2099985,4.56999962 C21.2899989,4.56999962 21.6249955,4.86499667 22.2149985,5.45499962 C22.8050014,6.04500257 23.3299962,6.33999962 23.7899985,6.33999962 C24.1700004,6.33999962 24.3599985,6.03000272 24.3599985,5.40999962 C24.3599985,4.88999702 24.2149999,4.19500397 23.9249985,3.32499962 C23.634997,2.45499527 23.4899985,1.90000082 23.4899985,1.65999962 C23.4899985,1.45999862 23.6099973,1.34999972 23.8499985,1.32999962 C24.1900002,1.30999952 24.3949981,1.27499987 24.4649985,1.22499962 C24.5349988,1.17499937 24.614998,0.990001219 24.7049985,0.669999619 C24.7949989,0.349998019 24.9399975,0.189999619 25.1399985,0.189999619 C25.2999993,0.189999619 25.4399979,0.309998419 25.5599985,0.549999619 C25.7399994,0.950001619 25.8499983,1.17499937 25.8899985,1.22499962 C25.9299987,1.27499987 26.099997,1.35999902 26.3999985,1.47999962 C26.6399997,1.60000022 26.7599985,1.74999872 26.7599985,1.92999962 C26.7599985,2.15000072 26.5800003,2.61499607 26.2199985,3.32499962 C25.8599967,4.03500317 25.6799985,4.71999632 25.6799985,5.37999962 C25.6799985,5.66000102 25.7199981,5.98999772 25.7999985,6.36999962 C26.2800009,6.24999902 26.7999957,5.83000322 27.3599985,5.10999962 C27.8800011,4.44999632 28.2199977,4.11999962 28.3799985,4.11999962 C28.5399993,4.11999962 28.6199985,4.22999852 28.6199985,4.44999962 L28.6199985,4.44999962 Z M37.4999985,13.0299996 C37.4999985,13.8500037 37.1900016,14.6149961 36.5699985,15.3249996 C35.9499954,16.0350032 35.290002,16.3899996 34.5899985,16.3899996 C34.4499978,16.3899996 34.1800005,16.2750008 33.7799985,16.0449996 C33.3799965,15.8149985 33.03,15.6999996 32.7299985,15.6999996 C32.6099979,15.6999996 32.5199988,15.7099995 32.4599985,15.7299996 C32.960001,17.0700063 33.2099985,17.8599984 33.2099985,18.0999996 C33.2099985,18.7200027 33.0899997,19.0299996 32.8499985,19.0299996 C32.6299974,19.0299996 32.4199995,18.8600013 32.2199985,18.5199996 C31.8399966,17.8999965 31.599999,17.5400001 31.4999985,17.4399996 C31.2399972,17.1399981 30.9000006,16.9899996 30.4799985,16.9899996 C29.5399938,16.9899996 28.6750024,17.6249933 27.8849985,18.8949996 C27.0949945,20.165006 26.6999985,21.6099915 26.6999985,23.2299996 C26.6999985,23.9500032 27.0199953,24.669996 27.6599985,25.3899996 C27.5999982,25.8300018 27.3700005,26.0499996 26.9699985,26.0499996 C26.8499979,26.0499996 26.6999994,26.01 26.5199985,25.9299996 C26.3399976,25.8499992 26.2199988,25.8099996 26.1599985,25.8099996 C25.9399974,25.8099996 25.8299985,25.9599981 25.8299985,26.2599996 C25.8299985,26.3199999 25.8399984,26.4299988 25.8599985,26.5899996 L25.8599985,27.0099996 C25.8599985,28.2700059 25.4900022,28.8999996 24.7499985,28.8999996 C24.6299979,28.8999996 24.4949992,28.7800008 24.3449985,28.5399996 C24.1949977,28.2999984 24.1199985,28.0700007 24.1199985,27.8499996 C24.1199985,27.7499991 24.164998,27.5700009 24.2549985,27.3099996 C24.3449989,27.0499983 24.3899985,26.8500003 24.3899985,26.7099996 C24.3899985,26.3299977 24.2499999,26.1399996 23.9699985,26.1399996 C23.9099982,26.1399996 23.8099992,26.1599994 23.6699985,26.1999996 C23.5299978,26.2399998 23.4199989,26.2599996 23.3399985,26.2599996 C22.9799967,26.2599996 22.6549999,26.1600006 22.3649985,25.9599996 C22.074997,25.7599986 21.9299985,25.5500007 21.9299985,25.3299996 C21.9299985,25.2499992 22.1299965,24.9500022 22.5299985,24.4299996 C22.9300005,23.909997 23.1299985,23.4700014 23.1299985,23.1099996 C23.1299985,21.7299927 22.7600022,20.3700063 22.0199985,19.0299996 C21.4199955,17.9499942 20.6900028,17.4099996 19.8299985,17.4099996 C19.5099969,17.4099996 19.1200008,17.5499982 18.6599985,17.8299996 C17.9799951,18.2500017 17.5499994,18.4999992 17.3699985,18.5799996 C17.1299973,18.4199988 17.0099985,18.2200008 17.0099985,17.9799996 C17.0099985,17.6999982 17.1899967,17.3700015 17.5499985,16.9899996 C18.0100008,16.5499974 18.4699962,16.1100018 18.9299985,15.6699996 C18.8699982,15.6099993 18.8099988,15.5799996 18.7499985,15.5799996 C18.5499975,15.5799996 18.1800012,15.7099983 17.6399985,15.9699996 C17.0999958,16.2300009 16.7199996,16.3599996 16.4999985,16.3599996 C15.6599943,16.3599996 14.8600023,15.9800034 14.0999985,15.2199996 C13.399995,14.5199961 13.0499985,13.8500028 13.0499985,13.2099996 C13.0499985,12.889998 13.1149978,12.590001 13.2449985,12.3099996 C13.3749991,12.0299982 13.4799981,11.8899996 13.5599985,11.8899996 C13.6199988,11.8899996 13.7849971,12.0999975 14.0549985,12.5199996 C14.3249998,12.9400017 14.5399977,13.1499996 14.6999985,13.1499996 C14.7399987,13.1499996 14.9799963,12.9200019 15.4199985,12.4599996 C15.8600007,11.9999973 16.2599967,11.7699996 16.6199985,11.7699996 C16.8999999,11.7699996 17.2599963,11.8599987 17.6999985,12.0399996 C18.1400007,12.2200005 18.409998,12.3099996 18.5099985,12.3099996 C18.7699998,12.3099996 18.9299982,12.0100026 18.9899985,11.4099996 C19.1099991,10.289994 19.1899983,9.65000042 19.2299985,9.48999962 C19.329999,9.02999732 19.529997,8.79999962 19.8299985,8.79999962 C20.2300005,8.79999962 20.4299985,9.10999652 20.4299985,9.72999962 L20.4299985,9.96999962 C20.4099984,10.0900002 20.3999985,10.1699994 20.3999985,10.2099996 C20.3999985,10.7900025 20.8099944,11.7099933 21.6299985,12.9699996 C22.5500031,14.3700066 23.0799978,15.4099962 23.2199985,16.0899996 C23.2599987,16.3100007 23.3599977,17.1499923 23.5199985,18.6099996 C23.6399991,19.8100056 23.8399971,20.8299954 24.1199985,21.6699996 C24.3199995,22.2500025 24.5899968,22.5399996 24.9299985,22.5399996 C25.3900008,22.5399996 25.6199985,22.2500025 25.6199985,21.6699996 L25.6199985,21.5499996 C25.5999984,21.4699992 25.5899985,21.4099998 25.5899985,21.3699996 C25.5899985,20.1899937 25.8999954,18.7500081 26.5199985,17.0499996 C27.0400011,15.6499926 27.5599959,14.2500066 28.0799985,12.8499996 C28.2199992,12.3699972 28.4199972,11.4100068 28.6799985,9.96999962 C28.7999991,9.32999642 29.0299968,9.00999962 29.3699985,9.00999962 C29.6499999,9.00999962 29.8999974,9.25999712 30.1199985,9.75999962 C30.3999999,10.4800032 30.6699972,11.1899961 30.9299985,11.8899996 C31.8100029,11.5299978 32.4299967,11.3499996 32.7899985,11.3499996 C33.7100031,11.3499996 34.419996,11.6699964 34.9199985,12.3099996 C35.0599992,12.5300007 35.1999978,12.7449986 35.3399985,12.9549996 C35.4799992,13.1650007 35.6299977,13.2699996 35.7899985,13.2699996 C36.0299997,13.2699996 36.2799972,13.0400019 36.5399985,12.5799996 C36.7999998,12.1199973 36.979998,11.8899996 37.0799985,11.8899996 C37.3599999,11.8899996 37.4999985,12.2699958 37.4999985,13.0299996 L37.4999985,13.0299996 Z" id="y-copy" fill="#FFFFFF" sketch:type="MSShapeGroup"></path>
                <path d="M27.936,4.715 C27.936,4.85033401 27.9166669,5.04366541 27.878,5.295 C27.8393331,5.54633459 27.82,5.72033285 27.82,5.817 L27.82,5.962 C27.82,5.86533285 27.5010032,6.57099246 26.863,8.079 C26.1283297,9.76100841 25.5870017,11.636323 25.239,13.705 C25.103666,14.4783372 24.9973337,15.4643273 24.92,16.663 C24.8233328,18.1710075 24.7556669,19.1086648 24.717,19.476 C24.5623326,20.8293401 24.417334,21.506 24.282,21.506 C24.0306654,21.506 23.8760003,20.2396793 23.818,17.707 C23.7599997,15.1743207 23.5376686,13.1636741 23.151,11.675 C22.8223317,10.4376605 22.2810038,9.03600783 21.527,7.47 C20.8889968,6.17466019 20.57,5.38200145 20.57,5.092 C20.57,4.91799913 20.637666,4.831 20.773,4.831 C20.8503337,4.831 21.1741638,5.11616382 21.7445,5.6865 C22.3148362,6.25683619 22.8223311,6.542 23.267,6.542 C23.6343352,6.542 23.818,6.24233633 23.818,5.643 C23.818,5.14033082 23.6778347,4.46850421 23.3975,3.6275 C23.1171653,2.7864958 22.977,2.25000116 22.977,2.018 C22.977,1.8246657 23.0929988,1.71833343 23.325,1.699 C23.6536683,1.67966657 23.851833,1.64583358 23.9195,1.5975 C23.987167,1.54916643 24.0644996,1.37033488 24.1515,1.061 C24.2385004,0.75166512 24.3786657,0.597 24.572,0.597 C24.7266674,0.597 24.8619994,0.71299884 24.978,0.945 C25.1520009,1.3316686 25.2583331,1.54916643 25.297,1.5975 C25.3356669,1.64583358 25.4999985,1.72799942 25.79,1.844 C26.0220012,1.96000058 26.138,2.10499913 26.138,2.279 C26.138,2.49166773 25.9640017,2.94116324 25.616,3.6275 C25.2679983,4.31383677 25.094,4.97599681 25.094,5.614 C25.094,5.88466802 25.1326663,6.20366483 25.21,6.571 C25.6740023,6.45499942 26.176664,6.04900348 26.718,5.353 C27.2206692,4.71499681 27.5493326,4.396 27.704,4.396 C27.8586674,4.396 27.936,4.50233227 27.936,4.715 L27.936,4.715 Z M36.52,13.009 C36.52,13.8016706 36.2203363,14.5411632 35.621,15.2275 C35.0216637,15.9138368 34.38367,16.257 33.707,16.257 C33.571666,16.257 33.3106686,16.1458344 32.924,15.9235 C32.5373314,15.7011656 32.1990014,15.59 31.909,15.59 C31.7929994,15.59 31.7060003,15.5996666 31.648,15.619 C32.1313357,16.9143398 32.373,17.6779988 32.373,17.91 C32.373,18.5093363 32.2570012,18.809 32.025,18.809 C31.8123323,18.809 31.6093343,18.6446683 31.416,18.316 C31.0486648,17.7166637 30.8166671,17.3686672 30.72,17.272 C30.4686654,16.9819986 30.140002,16.837 29.734,16.837 C28.8253288,16.837 27.9891705,17.4508272 27.2255,18.6785 C26.4618295,19.9061728 26.08,21.3029922 26.08,22.869 C26.08,23.5650035 26.3893302,24.2609965 27.008,24.957 C26.9499997,25.3823355 26.7276686,25.595 26.341,25.595 C26.2249994,25.595 26.0800009,25.5563337 25.906,25.479 C25.7319991,25.4016663 25.6160003,25.363 25.558,25.363 C25.3453323,25.363 25.239,25.5079986 25.239,25.798 C25.239,25.8560003 25.2486666,25.9623326 25.268,26.117 L25.268,26.523 C25.268,27.7410061 24.9103369,28.35 24.195,28.35 C24.0789994,28.35 23.9485007,28.2340012 23.8035,28.002 C23.6584993,27.7699988 23.586,27.5476677 23.586,27.335 C23.586,27.2383329 23.6294996,27.0643346 23.7165,26.813 C23.8035004,26.5616654 23.847,26.368334 23.847,26.233 C23.847,25.8656648 23.711668,25.682 23.441,25.682 C23.3829997,25.682 23.286334,25.7013331 23.151,25.74 C23.015666,25.7786669 22.9093337,25.798 22.832,25.798 C22.4839983,25.798 22.1698347,25.7013343 21.8895,25.508 C21.6091653,25.3146657 21.469,25.1116677 21.469,24.899 C21.469,24.8216663 21.6623314,24.5316692 22.049,24.029 C22.4356686,23.5263308 22.629,23.1010017 22.629,22.753 C22.629,21.4189933 22.2713369,20.1043398 21.556,18.809 C20.9759971,17.7649948 20.2703375,17.243 19.439,17.243 C19.1296651,17.243 18.7526689,17.378332 18.308,17.649 C17.6506634,18.055002 17.2350009,18.2966663 17.061,18.374 C16.8289988,18.2193326 16.713,18.0260012 16.713,17.794 C16.713,17.523332 16.8869983,17.2043352 17.235,16.837 C17.6796689,16.4116645 18.1243311,15.9863355 18.569,15.561 C18.5109997,15.5029997 18.4530003,15.474 18.395,15.474 C18.2016657,15.474 17.8440026,15.5996654 17.322,15.851 C16.7999974,16.1023346 16.4326677,16.228 16.22,16.228 C15.4079959,16.228 14.6346703,15.8606703 13.9,15.126 C13.2233299,14.44933 12.885,13.8016698 12.885,13.183 C12.885,12.8736651 12.9478327,12.583668 13.0735,12.313 C13.1991673,12.042332 13.3006663,11.907 13.378,11.907 C13.4360003,11.907 13.5954987,12.109998 13.8565,12.516 C14.1175013,12.922002 14.3253326,13.125 14.48,13.125 C14.5186669,13.125 14.7506645,12.9026689 15.176,12.458 C15.6013355,12.0133311 15.9879983,11.791 16.336,11.791 C16.606668,11.791 16.9546645,11.8779991 17.38,12.052 C17.8053355,12.2260009 18.0663328,12.313 18.163,12.313 C18.4143346,12.313 18.5689997,12.0230029 18.627,11.443 C18.7430006,10.3603279 18.8203331,9.74166744 18.859,9.587 C18.9556671,9.14233111 19.1489985,8.92 19.439,8.92 C19.8256686,8.92 20.019,9.21966367 20.019,9.819 L20.019,10.051 C19.9996666,10.1670006 19.99,10.2443331 19.99,10.283 C19.99,10.8436695 20.3863294,11.7329939 21.179,12.951 C22.0683378,14.3043401 22.580666,15.3096634 22.716,15.967 C22.7546669,16.1796677 22.8513326,16.9916596 23.006,18.403 C23.1220006,19.5630058 23.315332,20.5489959 23.586,21.361 C23.7793343,21.9216695 24.0403317,22.202 24.369,22.202 C24.8136689,22.202 25.036,21.9216695 25.036,21.361 L25.036,21.245 C25.0166666,21.1676663 25.007,21.1096669 25.007,21.071 C25.007,19.9303276 25.3066637,18.5383416 25.906,16.895 C26.4086692,15.5416599 26.9113308,14.1883401 27.414,12.835 C27.549334,12.3709977 27.7426654,11.443007 27.994,10.051 C28.1100006,9.43233024 28.3323317,9.123 28.661,9.123 C28.931668,9.123 29.1733323,9.36466425 29.386,9.848 C29.656668,10.5440035 29.9176654,11.23033 30.169,11.907 C31.0196709,11.5589983 31.6189983,11.385 31.967,11.385 C32.8563378,11.385 33.5426642,11.6943302 34.026,12.313 C34.161334,12.5256677 34.296666,12.733499 34.432,12.9365 C34.567334,13.139501 34.7123326,13.241 34.867,13.241 C35.0990012,13.241 35.3406654,13.0186689 35.592,12.574 C35.8433346,12.1293311 36.0173328,11.907 36.114,11.907 C36.384668,11.907 36.52,12.2743297 36.52,13.009 L36.52,13.009 Z" id="y" fill="#E44C65" sketch:type="MSShapeGroup"></path>
                <path d="M2.98515701,19.5025392 L0.725391388,21.1402345 C1.78333939,22.6975339 3.38716449,23.5015623 5.53691483,23.5523438 C7.09421428,23.5354167 8.46106259,23.0064506 9.63750076,21.9654298 C10.8224025,20.9497997 11.4317714,19.511012 11.4656258,17.6490235 L11.4656258,4.89023447 L8.6599617,4.89023447 L8.6599617,17.3697267 C8.6599617,17.9960319 8.56263194,18.5165345 8.36796951,18.9312501 C8.18177067,19.3628929 7.92363523,19.7098946 7.59355545,19.9722657 C6.91646873,20.5054715 6.20553834,20.763607 5.46074295,20.7466798 C4.90214641,20.7466798 4.41549763,20.6154962 4.00078201,20.3531251 C3.5860664,20.1330719 3.24752812,19.8495461 2.98515701,19.5025392 L2.98515701,19.5025392 Z" id="J-Copy" fill="#FFFFFF" sketch:type="MSShapeGroup"></path>
                <path d="M2.28515625,19.1025391 L0.025390625,20.7402344 C1.08333862,22.2975338 2.68716373,23.1015622 4.83691406,23.1523438 C6.39421352,23.1354166 7.76106183,22.6064505 8.9375,21.5654297 C10.1224018,20.5497996 10.7317707,19.1110119 10.765625,17.2490234 L10.765625,4.49023438 L7.95996094,4.49023438 L7.95996094,16.9697266 C7.95996094,17.5960318 7.86263118,18.1165344 7.66796875,18.53125 C7.4817699,18.9628928 7.22363446,19.3098945 6.89355469,19.5722656 C6.21646797,20.1054714 5.50553758,20.3636069 4.76074219,20.3466797 C4.20214564,20.3466797 3.71549687,20.2154961 3.30078125,19.953125 C2.88606563,19.7330718 2.54752735,19.449546 2.28515625,19.1025391 L2.28515625,19.1025391 Z" id="J" fill="#E44C65" sketch:type="MSShapeGroup"></path>
                <path d="M39.8835907,18.9058595 L38.0427704,21.0132813 C40.0147855,22.7059981 42.3718582,23.5523438 45.1140594,23.5523438 C49.354315,23.5015623 51.52096,21.7073095 51.6140594,18.1695313 C51.6140594,16.8576758 51.2035818,15.7066457 50.3826141,14.7164063 C49.5531829,13.7092399 48.2709692,13.0871758 46.5359344,12.8501954 C45.6557217,12.7401688 44.9617182,12.6428391 44.4539032,12.5582032 C43.5398361,12.3889315 42.8754548,12.0842471 42.4607391,11.6441407 C42.0460235,11.2124979 41.8386688,10.7300809 41.8386688,10.1968751 C41.855596,9.30819878 42.1645122,8.63958567 42.7654266,8.19101572 C43.3409503,7.75937294 44.0603442,7.54355478 44.9236298,7.54355478 C46.5909558,7.57740912 48.1186098,8.05136271 49.5066376,8.96542978 L51.068161,6.65488291 C49.3669806,5.42766323 47.365373,4.78867222 45.0632782,4.73789072 C43.1505082,4.75481789 41.673635,5.25416185 40.6326141,6.2359376 C39.557739,7.22617692 39.0203094,8.5295493 39.0203094,10.1460938 C39.0203094,11.4918037 39.447714,12.6343704 40.302536,13.5738282 C41.1319672,14.4878953 42.3422416,15.0761056 43.9333954,15.3384767 C44.8220717,15.4654304 45.6387953,15.5796871 46.3835907,15.6812501 C48.0085988,15.9605484 48.8126272,16.7899672 48.7957001,18.1695313 C48.7618457,19.8537846 47.5431079,20.7128254 45.1394501,20.7466798 C43.1081899,20.7297526 41.3562543,20.116152 39.8835907,18.9058595 L39.8835907,18.9058595 Z" id="S-Copy" fill="#FFFFFF" sketch:type="MSShapeGroup"></path>
                <path d="M39.1835938,18.5058594 L37.3427734,20.6132812 C39.3147885,22.305998 41.6718613,23.1523438 44.4140625,23.1523438 C48.6543181,23.1015622 50.8209631,21.3073094 50.9140625,17.7695312 C50.9140625,16.4576757 50.5035848,15.3066456 49.6826172,14.3164062 C48.853186,13.3092398 47.5709722,12.6871757 45.8359375,12.4501953 C44.9557248,12.3401687 44.2617213,12.242839 43.7539062,12.1582031 C42.8398392,11.9889314 42.1754578,11.684247 41.7607422,11.2441406 C41.3460266,10.8124978 41.1386719,10.3300808 41.1386719,9.796875 C41.155599,8.90819868 41.4645152,8.23958558 42.0654297,7.79101562 C42.6409534,7.35937284 43.3603472,7.14355469 44.2236328,7.14355469 C45.8909589,7.17740902 47.4186129,7.65136262 48.8066406,8.56542969 L50.3681641,6.25488281 C48.6669837,5.02766313 46.6653761,4.38867213 44.3632812,4.33789062 C42.4505113,4.35481779 40.973638,4.85416176 39.9326172,5.8359375 C38.857742,6.82617683 38.3203125,8.12954921 38.3203125,9.74609375 C38.3203125,11.0918036 38.7477171,12.2343703 39.6025391,13.1738281 C40.4319703,14.0878952 41.6422446,14.6761055 43.2333984,14.9384766 C44.1220748,15.0654303 44.9387984,15.179687 45.6835938,15.28125 C47.3086019,15.5605483 48.1126303,16.3899671 48.0957031,17.7695312 C48.0618488,19.4537845 46.843111,20.3128254 44.4394531,20.3466797 C42.408193,20.3297525 40.6562574,19.7161519 39.1835938,18.5058594 L39.1835938,18.5058594 Z" id="S" fill="#E44C65" sketch:type="MSShapeGroup"></path>
            </g>
        </g>
    </g>
</svg>